# xmcd
#
# Track frame offsets:
#	150
#	9593
#	20541
#	32837
#	45370
#	55244
#	65576
#	78025
#	89401
#	100732
#	112253
#	122998
#	134068
#	146758
#	157514
#	170113
#	183468
#	194753
#	207207
#	219754
#
# Disc length: 3059 seconds
#
# Revision: 2
# Processed by: cddbd v1.5.2PL0 Copyright (c) Steve Scherf et al.
# Submitted via: EZCDAudioConverter 2.0.7.1
#
DISCID=1e0bf114
DTITLE=Roy Orbison - The Monument Singles Collection 
DYEAR=1965
DGENRE=Rock and Roll
TTITLE0=Uptown (Monument Single 412 -- 1959)
TTITLE1=Only The Lonely (Monument Single 421 -- 1960)
TTITLE2=Blue Angel (Monument Single 425 -- 1960)
TTITLE3=I'm Hurtin' (Monument Single 433 -- 1960)
TTITLE4=Running Scared (Monument Single 438 -- 1961)
TTITLE5=Lana (Monument Single 939 -- 1961)
TTITLE6=Crying (Monument Single 447 -- 1961)
TTITLE7=Let The Good Times Roll (Monument Single 906 -- 1961)
TTITLE8=Blue Bayou (Monument Single 824 -- 1961)
TTITLE9=Dream Baby (Monument Single 456 -- 1962)
TTITLE10=The Crowd (Monument Single 461 -- 1962)
TTITLE11=Working For The Man (Monument Single 467 -- 1962)
TTITLE12=In Dreams (Monument Single 806 -- 1963)
TTITLE13=Falling (Monument Single 815 -- 1963)
TTITLE14=It's Over (Monument Single 837 -- 1964)
TTITLE15=Oh, Pretty Woman (Monument Single 851 -- 1964)
TTITLE16=Goodnight (Monument Single 873 -- 1965)
TTITLE17=Pretty Paper (Bonus Track - Monument Single 830 -- 1963)
TTITLE18=(Say) You're My Girl (Bonus Track - Monument Single 891 -- 1965)
TTITLE19=Paper Boy (Bonus Track - Monument Single 409 -- 1959)
EXTD=
EXTT0=
EXTT1=
EXTT2=
EXTT3=
EXTT4=
EXTT5=
EXTT6=
EXTT7=
EXTT8=
EXTT9=
EXTT10=
EXTT11=
EXTT12=
EXTT13=
EXTT14=
EXTT15=
EXTT16=
EXTT17=
EXTT18=
EXTT19=
PLAYORDER=
